<svg width="211" height="51" viewBox="0 0 211 51" fill="none" xmlns="http://www.w3.org/2000/svg">
<g clip-path="url(#clip0_8775_461533)">
<path d="M126.1 25.2C126.1 30.1 126.2 35 126.1 39.9C126 44.9 121.8 49.6 117 50.2C116.3 50.3 115.5 50.4 114.8 50.4C111.2 50.4 99.4 50.4 95.8 50.4C89.3 50.4 84.5 45.4 84.5 38.8C84.5 29.7 84.5 20.6 84.5 11.4C84.5 8.8 85.8 7.5 88.4 7.4C90.9 7.4 92.2 6 92.2 3.4C92.2 2.8 92.2 2.2 92.2 1.6C92.2 0.3 92.5 0 93.7 0C98.1 0 110.5 0 114.9 0C121.5 0 126.2 4.9 126.3 11.7C126.1 16.2 126.1 20.7 126.1 25.2ZM119.3 7.1C119 7.1 118.8 7.1 118.6 7.1C113.4 7.1 100.1 7.1 94.9 7.1C92.4 7.1 91.1 8.5 91.1 11.1C91.1 21.6 91.1 32.1 91.1 42.7C91.1 43 91.1 43.2 91.1 43.5C97.9 43.5 112.6 43.5 119.3 43.5C119.3 31.2 119.3 19.2 119.3 7.1Z" fill="white"/>
<path d="M178.7 21.7C185.5 21.7 197.5 21.7 204.3 21.7C204.3 21.4 204.3 21.1 204.3 20.8C204.3 14.4 204.3 8.1 204.3 1.7C204.3 0.4 204.6 0.1 205.9 0.1C207.2 0.1 208.5 0.1 209.7 0.1C210.6 0.1 211 0.5 211 1.4C211 1.5 211 1.7 211 1.8C211 14.9 211 28 211 41.2C211 41.4 211 41.6 211 41.7C211 42.5 210.6 42.9 209.8 42.9C208.8 42.9 207.9 42.9 206.9 42.9C204.8 42.9 203.4 44.4 203.3 46.6C203.3 47.4 203.3 48.2 203.3 49.1C203.3 50 202.9 50.4 202 50.4C200.6 50.4 199.2 50.4 197.9 50.4C197.1 50.4 196.6 50 196.6 49.1C196.6 47.6 196.6 46.2 196.6 44.7C196.6 43.9 197 43.5 197.8 43.4C198.7 43.4 199.6 43.4 200.6 43.4C203 43.4 204.3 42 204.3 39.5C204.3 36.2 204.3 32.8 204.3 29.5C204.3 29.3 204.3 29 204.3 28.7C197.5 28.7 185.5 28.7 178.7 28.7C178.7 29 178.7 29.3 178.7 29.6C178.7 36 178.7 42.3 178.7 48.7C178.7 50.1 178.4 50.4 177.1 50.4C175.9 50.4 174.7 50.4 173.5 50.4C172.4 50.4 172.1 50 172.1 48.9C172.1 44.2 172.1 39.5 172.1 34.7C172.1 26.2 172.1 17.7 172.1 9.2C172.1 7.7 172.4 7.4 173.8 7.4C174.8 7.4 175.7 7.4 176.7 7.3C178.4 7.2 179.7 5.8 179.7 4C179.7 3.1 179.7 2.2 179.7 1.3C179.7 0.4 180.1 0 181 0C182.4 0 183.8 0 185.1 0C186 0 186.4 0.4 186.4 1.4C186.4 2.8 186.4 4.2 186.4 5.6C186.4 6.6 186 7 185 7C184 7 183 7 182 7C180.2 7.1 178.8 8.3 178.8 10.2C178.6 14 178.7 17.8 178.7 21.7Z" fill="white"/>
<path d="M20.7004 0C24.5004 0 32.7004 0 36.6004 0C37.7004 0 38.0004 0.4 38.0004 1.6C38.0004 2.9 38.0004 4.1 38.0004 5.4C38.0004 6.7 37.7004 7 36.5004 7C29.4004 7 17.9004 7 10.8004 7C10.3004 7 9.80039 7 9.30039 7.1C7.80039 7.5 6.80039 8.8 6.80039 10.5C6.80039 13 6.80039 15.5 6.80039 18.1C6.80039 20.3 8.20039 21.6 10.5004 21.7C13.7004 21.7 16.9004 21.7 20.1004 21.7C23.0004 21.7 30.2004 21.7 33.1004 21.7C34.4004 21.7 34.7004 22 34.7004 23.3C34.7004 24.5 34.7004 25.7 34.7004 27C34.7004 28.4 34.4004 28.7 33.1004 28.7C27.1004 28.7 16.7004 28.7 10.7004 28.7C8.10039 28.7 6.70039 30.1 6.70039 32.8C6.70039 35 6.70039 37.1 6.70039 39.3C6.70039 42.1 8.00039 43.4 10.7004 43.4C17.8004 43.4 29.2004 43.4 36.2004 43.4C36.5004 43.4 36.7004 43.4 37.0004 43.4C37.6004 43.5 38.0004 43.8 38.0004 44.5C38.0004 46.1 38.0004 47.7 38.0004 49.3C38.0004 50 37.5004 50.4 36.8004 50.4C35.2004 50.4 33.7004 50.4 32.1004 50.4C25.9004 50.4 15.4004 50.4 9.30039 50.4C8.00039 50.4 7.70039 50.1 7.70039 48.8C7.70039 48.1 7.70039 47.3 7.70039 46.6C7.70039 44.5 6.30039 43.1 4.30039 43C3.80039 43 3.30039 43 2.80039 42.9C1.20039 42.6 0.100391 41.3 0.100391 39.5C0.100391 37.3 0.100391 35 0.100391 32.8C0.100391 30.7 1.50039 29.4 3.70039 29.3C4.20039 29.3 4.70039 29.3 5.20039 29.2C6.70039 28.8 7.70039 27.5 7.80039 25.9C7.80039 25.2 7.80039 24.5 7.60039 23.9C7.30039 22.6 6.10039 21.6 4.80039 21.5C4.30039 21.5 3.90039 21.5 3.40039 21.4C1.50039 21.2 0.200391 20 0.100391 18C0.000390626 15.7 0.000390626 13.4 0.100391 11C0.200391 8.9 1.50039 7.7 3.60039 7.6C4.10039 7.6 4.70039 7.6 5.20039 7.5C6.60039 7 7.60039 5.7 7.70039 4.1C7.70039 3.2 7.70039 2.3 7.70039 1.4C7.70039 0.4 8.10039 0 9.00039 0C12.9004 0 16.8004 0 20.7004 0Z" fill="white"/>
<path d="M161.001 6.9999C160.701 6.9999 160.401 6.9999 160.201 6.9999C155.001 6.9999 144.901 6.9999 139.701 6.9999C138.701 6.9999 137.701 7.1999 136.901 7.8999C136.101 8.5999 135.801 9.5999 135.801 10.5999C135.801 21.3999 135.801 32.0999 135.801 42.8999C135.801 42.9999 135.801 43.0999 135.801 43.2999C142.501 43.2999 154.201 43.2999 160.901 43.2999C160.901 40.2999 160.901 37.3999 160.901 34.2999C163.201 34.2999 165.401 34.2999 167.601 34.2999C167.601 37.8999 168.001 41.5999 166.001 44.8999C163.801 48.2999 160.801 50.1999 156.901 50.2999C152.901 50.3999 143.901 50.3999 139.901 50.2999C133.901 50.1999 129.201 45.2999 129.101 38.8999C129.001 29.5999 129.101 20.3999 129.101 11.0999C129.101 8.7999 130.501 7.3999 132.701 7.2999C133.201 7.2999 133.701 7.2999 134.101 7.1999C135.601 6.8999 136.601 5.5999 136.701 3.9999C136.701 3.0999 136.701 2.1999 136.701 1.2999C136.701 0.299902 137.101 -0.100098 138.001 -0.100098C142.601 -0.100098 152.101 -0.100098 156.701 -0.100098C162.801 -9.76548e-05 167.501 4.8999 167.601 11.3999C167.601 12.8999 167.601 14.3999 167.601 15.8999C165.301 15.8999 163.201 15.8999 160.901 15.8999C161.001 12.9999 161.001 10.0999 161.001 6.9999Z" fill="white"/>
<path d="M48.9012 28.7C48.9012 29.1 48.9012 29.4 48.9012 29.7C48.9012 36.1 48.9012 42.3999 48.9012 48.7999C48.9012 50.0999 48.6012 50.4 47.3012 50.4C46.1012 50.4 45.0012 50.4 43.8012 50.4C42.5012 50.4 42.2012 50.1 42.2012 48.7C42.2012 42.1 42.2012 35.3999 42.2012 28.7999C42.2012 23 42.2012 17.2 42.2012 11.4C42.2012 9.49995 43.1012 8.09995 44.6012 7.69995C45.1012 7.59995 45.6012 7.49995 46.2012 7.49995C48.5012 7.39995 49.8012 6.09995 49.9012 3.59995C49.9012 2.79995 49.9012 2.09995 49.9012 1.29995C49.9012 0.499951 50.3012 0.0999512 51.1012 0.0999512C55.9012 0.0999512 67.0012 -4.88311e-05 71.8012 0.199951C77.4012 0.399951 82.2012 5.29995 82.2012 11.7C82.2012 13.6 82.2012 15.6 82.2012 17.5C82.2012 19.9 80.8012 21.1999 78.5012 21.2999C77.7012 21.2999 76.8012 21.5 76.1012 21.7999C74.9012 22.4 74.5012 23.5 74.5012 24.7999C74.5012 25.5999 74.5012 26.4 74.5012 27.2C74.5012 28.3 74.2012 28.6 73.1012 28.6C67.5012 28.6 55.6012 28.6 50.0012 28.6C49.6012 28.7 49.3012 28.7 48.9012 28.7ZM75.4012 7.09995C75.2012 7.09995 75.1012 6.99995 75.0012 6.99995C69.6012 6.99995 57.9012 6.99995 52.5012 6.99995C50.3012 6.99995 48.9012 8.49995 48.9012 10.8C48.9012 14.2 48.9012 17.5 48.9012 20.9C48.9012 21.1 48.9012 21.3 48.9012 21.6C49.0012 21.6 49.1012 21.7 49.2012 21.7C54.7012 21.7 66.4012 21.7 71.9012 21.7C74.0012 21.7 75.3012 20.2 75.3012 18C75.3012 15.9 75.3012 13.8 75.3012 11.6C75.4012 10.1 75.4012 8.59995 75.4012 7.09995Z" fill="white"/>
</g>
<defs>
<clipPath id="clip0_8775_461533">
<rect width="211" height="50.4" fill="white"/>
</clipPath>
</defs>
</svg>
